<svg id="Layer_1" data-name="Layer 1" xmlns="http://www.w3.org/2000/svg" viewBox="0 0 1024 1024"><defs><style>.cls-1{fill:#ff0;}</style></defs><title>ai_farm_logo</title><path d="M184.23,223c1.77,14.57,4.58,28.8,9.86,42.53A175.08,175.08,0,0,0,211,299.24a207.63,207.63,0,0,0,27.12,33c8.18,8.12,16.92,15.69,25.72,23.13a393.73,393.73,0,0,0,36.83,27.71,15.5,15.5,0,0,0,7.81,2.49,15.89,15.89,0,0,0,8.37-.37,15.7,15.7,0,0,0,7.14-3.76,15.89,15.89,0,0,0,5.41-5.89c2.58-4.88,3.87-10.78,2.12-16.18l-2.12-5a21,21,0,0,0-7.53-7.53q-10.64-7.05-20.75-14.86l4.25,3.28c-8-6.21-15.76-12.82-23.38-19.54-7-6.13-13.76-12.47-20.09-19.26-3.81-4.09-7.45-8.35-10.88-12.78l3.28,4.25a154.89,154.89,0,0,1-20-34l2.12,5a154.78,154.78,0,0,1-10.66-39.18l.75,5.58c-.11-.78-.21-1.57-.3-2.35a15.85,15.85,0,0,0-1.81-8.09,18.86,18.86,0,0,0-11.1-11.1,15.75,15.75,0,0,0-8.09-1.81c-5.43.24-11.07,2-14.85,6.15l-3.28,4.25a20.9,20.9,0,0,0-2.87,10.6Z" transform="translate(-0.5 -0.5)"/><path d="M348.83,458.34c-1.91-10.59-3.81-21.17-5.26-31.83l.75,5.58a237.37,237.37,0,0,1-.11-63.4l-.75,5.58A80.68,80.68,0,0,1,348.9,354l-2.12,5a100.67,100.67,0,0,1,13.05-22.17l-3.28,4.25a100.58,100.58,0,0,1,17.16-17.22l-4.25,3.29A94.73,94.73,0,0,1,390.11,315l-5,2.11a117,117,0,0,1,29.56-7.65l-5.59.75c15.31-2,30.8-2.38,46.22-2.84,10.83-.32,21.67-.17,32.5.05,31.41.66,62.79,1.72,94.16,3.39,14.64.77,29.32,1.59,43.87,3.52l-5.58-.75c9.43,1.28,18.95,3,27.77,6.73l-5-2.12A103.81,103.81,0,0,1,665.13,331l-4.25-3.29a73.34,73.34,0,0,1,12.78,12.55L670.38,336a60.23,60.23,0,0,1,7.7,12.91l-2.11-5a57.75,57.75,0,0,1,3.81,14.44l-.75-5.58c1.1,8.76.86,17.65.83,26.46,0,9.43-.06,18.86-.14,28.29-.12,14.2-.27,28.42-1.14,42.6-.36,5.92-.87,11.83-1.65,17.7l.75-5.58c-3.27,24.1-12,47.29-21.45,69.59l2.12-5A407.83,407.83,0,0,1,640,565.36c-4.2,7.61-8.83,15-12.32,23a139.32,139.32,0,0,0-10.23,36.69,383.85,383.85,0,0,0-3.81,48.84c-.1,6.47,0,12.93.17,19.39.22,6.85.68,13.77-.19,20.6l.75-5.59a55.66,55.66,0,0,1-4,13.92l2.12-5a79.35,79.35,0,0,1-10,17.12l3.28-4.25a75.93,75.93,0,0,1-13.35,13.4l4.25-3.28a67.78,67.78,0,0,1-14.45,8.58l5-2.12a78.35,78.35,0,0,1-19.77,5l5.59-.75c-15.66,2.09-31.69,2.62-47.47,3-17.46.42-34.85-.56-52.26-1.8-8.1-.58-16.2-1.22-24.25-2.29l5.59.75c-7.65-1-15.31-2.51-22.46-5.5l5,2.12a48.77,48.77,0,0,1-10.07-5.82l4.25,3.28a52.42,52.42,0,0,1-9.26-9.21l3.28,4.25A62.22,62.22,0,0,1,418,726.6l2.12,5a156.34,156.34,0,0,1-6.81-21.14,56.07,56.07,0,0,1-1.37-6.8l.75,5.58c-.66-5-.78-10-1-15.08-.37-10.64-.69-21.27-1.1-31.91-.57-14.44-.88-28.92-3-43.25-1.66-11.35-6.18-22.51-12.08-32.28-3.83-6.35-8.12-12.41-11.9-18.79a199,199,0,0,1-11.92-23.54l2.12,5c-12.25-29.11-19.47-60.11-25-91.08-.89-4.91-5.5-10.12-9.65-12.55C334.67,443.15,328,442,323,443.67s-10,4.79-12.55,9.65c-2.77,5.25-3.16,10.35-2.11,16.18,1.85,10.31,3.7,20.62,6.05,30.82,2.46,10.65,5.59,21.11,8.82,31.55,6.6,21.28,14.73,42.06,26.51,61.06,5.06,8.17,10.86,15.91,14.64,24.8l-2.12-5a73.24,73.24,0,0,1,5,17.88l-.75-5.58c1.14,8.48,1.32,17.1,1.69,25.64q.64,14.93,1.13,29.86c.31,9.28.24,18.68,1.31,27.92,1.61,13.91,5.78,27.19,11.43,40,8.35,19,24.66,32.81,44.26,39,8.38,2.64,17.24,3.69,25.93,4.74,9.55,1.15,19.17,1.78,28.76,2.42,11.12.74,22.22,1.36,33.37,1.4,11.73,0,23.45-.54,35.16-1.17,10.36-.56,20.63-1.41,30.9-2.94a90.05,90.05,0,0,0,23.5-7,85,85,0,0,0,25.22-17.79A95.67,95.67,0,0,0,645.62,745a93.71,93.71,0,0,0,7.91-19c2.47-8.86,2.74-18.12,2.46-27.25a458.1,458.1,0,0,1,.86-51.21q.61-7.65,1.63-15.27l-.75,5.58c1.52-11.07,3.67-22.17,8-32.52l-2.12,5c3.45-8.11,8.13-15.61,12.39-23.3a402,402,0,0,0,18.47-38.76c6.51-15.4,12.79-30.86,17.45-46.93a224.24,224.24,0,0,0,7.49-37.51c2.86-25.28,2.32-51,2.41-76.4,0-8.69.25-17.41-.11-26.11-.35-8.49-1.22-17.34-4-25.42-6.38-18.4-18.94-32.77-34.8-43.72A115.4,115.4,0,0,0,654,277.87c-10.28-3.39-21.2-4.73-31.9-6-13.07-1.56-26.23-2.32-39.37-3-17.62-1-35.24-1.78-52.88-2.36-24.81-.82-49.75-1.86-74.57-1.12-15.31.46-30.69.79-45.89,2.8a173.44,173.44,0,0,0-23.4,4.26,123.66,123.66,0,0,0-21.51,8.33c-7.86,3.85-14.9,8.94-21.7,14.41a97.72,97.72,0,0,0-15.13,15.23,134.31,134.31,0,0,0-12.39,17.78,137.09,137.09,0,0,0-7,15.05c-5.86,14.25-7.05,30.2-7.93,45.43-1.06,18.43.85,36.68,3.6,54.89,1.31,8.68,2.86,17.32,4.42,25.95.88,4.91,5.49,10.12,9.65,12.55,4.5,2.64,11.13,3.75,16.18,2.12s10-4.79,12.55-9.65C349.48,469.27,349.88,464.17,348.83,458.34Z" transform="translate(-0.5 -0.5)"/><path d="M724.73,380.7q16.54-9.54,32.22-20.49,8.87-6.19,17.52-12.72a216.25,216.25,0,0,0,17-13.77A171.89,171.89,0,0,0,811,311.6a156.33,156.33,0,0,0,9.85-14.44,182.23,182.23,0,0,0,11.65-23.77c6.4-15.34,9.82-31.49,11.28-48a15.88,15.88,0,0,0-1.8-8.1,21.57,21.57,0,0,0-19.2-12.9c-5.43.24-11.06,2-14.85,6.15l-3.28,4.25a21,21,0,0,0-2.87,10.6c-.18,2.11-.42,4.22-.69,6.32l.75-5.58A142.77,142.77,0,0,1,792,262.22l2.12-5a151.7,151.7,0,0,1-19.59,33.46l3.29-4.25a141.64,141.64,0,0,1-18.42,19.74c-2.51,2.2-5.11,4.31-7.76,6.35l4.25-3.28a481.47,481.47,0,0,1-42.75,29.51q-4.78,2.91-9.63,5.7a20.21,20.21,0,0,0-10,20.92,15.5,15.5,0,0,0,2.49,7.81c2.89,4.49,7.19,8.43,12.55,9.65a22.05,22.05,0,0,0,16.18-2.11Z" transform="translate(-0.5 -0.5)"/><path d="M711.76,397l5.38-.76-5.58.75q18.44-2.46,37-3.51c11.1-.61,22.27-1,33.39-.93a124.58,124.58,0,0,1,15.2,1l-5.58-.75A109.84,109.84,0,0,1,819,400.35l-5-2.11a92,92,0,0,1,20.11,11.61l-4.25-3.29a83.2,83.2,0,0,1,14.63,14.54l-3.28-4.25A76,76,0,0,1,851,433.51l-2.12-5a67.29,67.29,0,0,1,4.64,17.06l-.75-5.58a70.16,70.16,0,0,1,0,18.14l.75-5.58a71.82,71.82,0,0,1-4.92,18.2l2.12-5a71.21,71.21,0,0,1-9.22,15.59l3.28-4.25a81.72,81.72,0,0,1-14.42,14.31l4.25-3.28a99.12,99.12,0,0,1-21.93,12.71l5-2.12a101,101,0,0,1-25.4,7l5.58-.75a93.82,93.82,0,0,1-24.49,0l5.59.75a93.64,93.64,0,0,1-23.31-6.35l5,2.11a72.52,72.52,0,0,1-16.2-9.38l4.25,3.28A72.69,72.69,0,0,1,736,482.59l3.28,4.25a87.52,87.52,0,0,1-11.25-19.51l2.12,5a115.26,115.26,0,0,1-7.09-24.27q-.52-2.91-.92-5.84l.75,5.58a105.1,105.1,0,0,1-1-14.29A20.26,20.26,0,0,0,709,414.34a15.75,15.75,0,0,0-8.09-1.81c-5.43.24-11.07,2-14.85,6.15a21.88,21.88,0,0,0-6.15,14.85c0,2.42.12,4.86.31,7.27a176.73,176.73,0,0,0,2.67,19.86,126.86,126.86,0,0,0,16.89,42.78c5.26,7.89,11.42,15.37,18.88,21.28a95.53,95.53,0,0,0,14.91,10.18,112.74,112.74,0,0,0,20.33,8.24,113.92,113.92,0,0,0,29.44,4.55,125.77,125.77,0,0,0,21.3-1.72,97.92,97.92,0,0,0,13.54-3,128,128,0,0,0,23.9-9.83,97,97,0,0,0,13.08-8.31,123.68,123.68,0,0,0,12.8-10.71A107.2,107.2,0,0,0,880,499.47a88.45,88.45,0,0,0,11-22.78,73.34,73.34,0,0,0,2.67-10.94,97.56,97.56,0,0,0,1.61-19.66,90.16,90.16,0,0,0-3.49-22,104.19,104.19,0,0,0-5.36-13.63,74.94,74.94,0,0,0-6.16-10.86,106.43,106.43,0,0,0-13.82-16.72,112.11,112.11,0,0,0-17-13.35,92.36,92.36,0,0,0-12.5-6.75,144.8,144.8,0,0,0-24.21-8.56,130.28,130.28,0,0,0-28.29-3.62c-10-.23-20.1.18-30.11.61q-15.49.66-30.92,2.34c-7.65.84-15.28,1.85-22.89,3a23.4,23.4,0,0,0-12.55,9.65,15.49,15.49,0,0,0-2.49,7.8,15.83,15.83,0,0,0,.37,8.38c1.64,5.08,4.79,10,9.65,12.55l5,2.12a21.13,21.13,0,0,0,11.16,0Z" transform="translate(-0.5 -0.5)"/><path d="M321.85,353.39q-31.8.44-63.62-.12c-8.76-.15-17.53-.42-26.3-.4a134.76,134.76,0,0,0-21.22,1.71,79.39,79.39,0,0,0-12.78,3.29,122.08,122.08,0,0,0-23.17,10.36A118.14,118.14,0,0,0,160,378.83a73.21,73.21,0,0,0-10.46,10.44A104.45,104.45,0,0,0,140.31,402a106.63,106.63,0,0,0-6.38,13.55A68.16,68.16,0,0,0,130,428.32a83.71,83.71,0,0,0,9.2,59.94,106.36,106.36,0,0,0,10.36,14.58,89.77,89.77,0,0,0,7.43,8,146,146,0,0,0,11.17,9.6c6.77,5.3,13.61,10.28,21.34,14.12,10.16,5,21,9,32.22,10.59,8.12,1.15,16.07,2,24.25,1.38a121.3,121.3,0,0,0,30.09-5.73,117.9,117.9,0,0,0,19.37-8.49,111.83,111.83,0,0,0,14.75-10.28,80.49,80.49,0,0,0,9.58-9,94.16,94.16,0,0,0,21.78-38.35,110.58,110.58,0,0,0,3.5-19.79c1-9.79,0-19.49-1.5-29.17-.39-2.46-.87-4.89-1.45-7.31a20.21,20.21,0,0,0-17.46-15,15.9,15.9,0,0,0-8.37.38c-5.08,1.64-10,4.79-12.55,9.65l-2.12,5a21.17,21.17,0,0,0,0,11.17,97.41,97.41,0,0,1,1.81,9.73l-.75-5.58a91,91,0,0,1,.07,23.84l.75-5.58a77.77,77.77,0,0,1-5.29,19.58l2.12-5a75.06,75.06,0,0,1-9.65,16.43l3.28-4.25a80.92,80.92,0,0,1-14.16,14.13l4.25-3.29a82.52,82.52,0,0,1-18.43,10.64l5-2.11a97.45,97.45,0,0,1-24.42,6.54l5.58-.75a90.46,90.46,0,0,1-23.65.09l5.58.75a90.41,90.41,0,0,1-23-6.28l5,2.12a98.64,98.64,0,0,1-21.65-12.77l4.25,3.28a129.57,129.57,0,0,1-14.91-13.27,83.8,83.8,0,0,1-5.48-6.41l3.28,4.25a71.81,71.81,0,0,1-9.17-15.59l2.11,5a64.05,64.05,0,0,1-4.35-15.91l.75,5.59a63.92,63.92,0,0,1,0-16.81l-.75,5.58a68.24,68.24,0,0,1,4.72-17.11l-2.12,5a70.4,70.4,0,0,1,8.9-15.26L178,420.49A76,76,0,0,1,191.62,407l-4.25,3.28a90.31,90.31,0,0,1,19.82-11.43l-5,2.12a85.21,85.21,0,0,1,21.25-6.13l-5.59.75c9.6-1.27,19.45-.72,29.1-.54,17.55.33,35.1.56,52.65.51q11.13,0,22.27-.18a21.76,21.76,0,0,0,14.85-6.15,23.4,23.4,0,0,0,6.15-14.85c-.24-5.43-2-11.06-6.15-14.85s-9.19-6.23-14.85-6.15Z" transform="translate(-0.5 -0.5)"/><path d="M454.38,690.57a132.55,132.55,0,0,1,15.65-7.9l-5,2.12a136.93,136.93,0,0,1,34.7-9.48l-5.59.75a138.68,138.68,0,0,1,36.69-.1l-5.58-.75a122.52,122.52,0,0,1,30.86,8.5l-5-2.12a122.45,122.45,0,0,1,17.27,9,15.6,15.6,0,0,0,7.8,2.5,21.6,21.6,0,0,0,20.93-10c2.57-4.87,3.86-10.78,2.11-16.18l-2.11-5a21.09,21.09,0,0,0-7.54-7.53,147.15,147.15,0,0,0-27.16-13,121.71,121.71,0,0,0-25.11-6.44A162.6,162.6,0,0,0,505.42,633a182.83,182.83,0,0,0-23.56,2.88,136,136,0,0,0-17,4.3,157.92,157.92,0,0,0-31.71,14.13,21.74,21.74,0,0,0-9.65,12.55,15.9,15.9,0,0,0-.38,8.37,15.69,15.69,0,0,0,2.49,7.81c2.89,4.48,7.2,8.43,12.55,9.65a21.88,21.88,0,0,0,16.19-2.12Z" transform="translate(-0.5 -0.5)"/><path class="cls-1" d="M.5.5v1024h1024V.5ZM934,987H84V37H934Z" transform="translate(-0.5 -0.5)"/></svg>